<?xml version="1.0" standalone="no"?>
<!DOCTYPE svg PUBLIC "-//W3C//DTD SVG 20010904//EN"
 "http://www.w3.org/TR/2001/REC-SVG-20010904/DTD/svg10.dtd">
<svg version="1.0" xmlns="http://www.w3.org/2000/svg"
 width="960.000000pt" height="1568.000000pt" viewBox="0 0 960.000000 1568.000000"
 preserveAspectRatio="xMidYMid meet">
<metadata>
Created by potrace 1.16, written by Peter Selinger 2001-2019
</metadata>
<g transform="translate(0.000000,1568.000000) scale(0.100000,-0.100000)"
fill="#000000" stroke="none">
<path d="M4195 11679 c-110 -27 -249 -58 -310 -69 -148 -26 -198 -45 -234 -86
-43 -48 -51 -86 -62 -294 -5 -102 -18 -340 -29 -530 -11 -190 -27 -466 -35
-615 -8 -148 -22 -349 -30 -445 -21 -259 -20 -296 13 -361 41 -81 89 -107 237
-130 106 -16 115 -18 115 -31 0 -6 -24 -48 -53 -92 -30 -45 -80 -143 -112
-219 -57 -137 -86 -187 -107 -187 -24 0 -95 71 -123 121 -27 49 -29 62 -30
154 0 55 4 147 9 205 l9 105 -39 25 -39 26 3 133 c3 142 1 151 -44 151 -13 0
-42 -24 -77 -64 -32 -36 -66 -67 -77 -71 -47 -15 -81 33 -112 154 -10 41 -32
96 -49 124 -17 27 -27 53 -22 56 4 4 25 20 47 35 42 31 110 132 145 214 12 29
33 103 48 165 33 144 38 372 9 476 -28 103 -96 221 -128 221 -4 0 -51 -36
-103 -80 -52 -44 -97 -80 -100 -80 -3 0 -37 30 -77 66 -123 113 -276 224 -309
224 -28 0 -88 -148 -101 -248 -6 -48 -14 -91 -18 -95 -4 -5 -34 5 -66 21 -75
38 -132 58 -140 49 -4 -4 -9 -32 -12 -62 -5 -63 17 -169 54 -257 36 -87 34
-95 -33 -108 -105 -21 -112 -36 -57 -118 79 -120 244 -266 373 -332 75 -37
215 -75 319 -85 39 -4 74 -10 76 -14 3 -4 14 -30 25 -59 20 -49 20 -52 3 -61
-20 -11 -282 10 -364 28 -83 19 -92 0 -58 -120 12 -41 11 -59 -5 -144 -25
-133 -17 -265 20 -340 49 -100 159 -177 312 -216 83 -21 284 -26 357 -10 50
12 57 9 92 -47 16 -26 53 -83 83 -127 64 -95 92 -161 93 -225 2 -61 -7 -73
-46 -67 -39 6 -155 -17 -212 -43 -67 -29 -146 -111 -235 -242 -44 -65 -104
-144 -134 -176 l-54 -57 -1 40 c0 52 21 92 111 211 95 125 159 190 259 260 44
30 80 58 80 61 0 26 -185 122 -251 130 -52 6 -127 -15 -149 -42 -10 -12 -17
-11 -52 1 -22 8 -71 14 -107 14 -89 0 -153 -32 -224 -111 -55 -60 -141 -218
-135 -248 3 -14 21 -16 136 -15 72 1 132 -1 132 -5 0 -3 -9 -38 -20 -76 -11
-38 -20 -85 -20 -102 0 -38 6 -40 95 -18 85 20 88 20 81 -12 -20 -85 -59 -113
-157 -113 -46 0 -50 -2 -47 -22 2 -13 21 -33 49 -50 l47 -28 61 34 c57 33 81
35 45 5 -43 -36 -290 -316 -306 -348 -25 -50 -23 -125 6 -186 25 -55 86 -134
180 -235 34 -36 96 -105 139 -153 l78 -87 -28 -11 c-67 -25 -123 -116 -131
-215 -6 -77 9 -121 55 -169 96 -99 245 -100 373 -3 l51 39 35 -30 c53 -47 93
-64 166 -69 72 -5 115 6 261 70 37 16 72 26 77 23 16 -10 12 -53 -15 -163 -25
-105 -31 -159 -17 -177 4 -6 30 -27 58 -47 l51 -37 -14 -73 c-8 -40 -20 -101
-28 -135 -20 -84 -19 -126 3 -147 23 -20 177 -68 292 -91 97 -20 105 -24 114
-66 11 -55 81 -192 133 -259 59 -77 73 -102 73 -128 0 -19 -2 -19 -57 3 -171
69 -360 41 -440 -64 -40 -52 -67 -140 -60 -193 5 -34 3 -38 -11 -32 -21 9
-632 12 -638 2 -6 -10 39 -17 176 -29 309 -25 572 -32 1225 -34 480 -2 742 -6
835 -15 173 -17 434 -8 460 15 12 11 40 15 116 15 103 0 434 26 442 35 17 16
-38 20 -288 20 l-278 0 -6 55 c-8 67 -43 145 -82 182 -60 56 -165 72 -274 43
-30 -8 -56 -15 -57 -15 -2 0 -3 14 -3 30 0 24 7 35 33 50 38 22 42 32 81 207
14 61 28 118 31 126 5 10 33 16 108 21 192 12 476 67 514 98 8 6 13 32 13 62
0 44 -29 292 -45 383 l-6 32 44 -24 c64 -36 161 -58 221 -50 123 16 344 113
435 191 l36 32 0 143 c-1 159 -26 314 -70 423 l-24 58 30 25 c42 36 38 67 -20
149 -92 131 -156 165 -242 130 -13 -6 -18 6 -28 62 -7 37 -23 87 -37 111 -13
24 -24 46 -24 51 0 4 17 15 38 24 21 10 46 30 55 46 20 33 17 57 -39 283 l-37
148 40 42 c51 52 111 171 152 302 57 178 52 168 101 183 25 8 108 16 186 19
179 7 235 -7 288 -69 39 -45 61 -107 52 -144 -7 -26 -51 -71 -80 -80 -12 -4
-34 5 -63 25 -51 36 -66 33 -51 -10 10 -29 55 -70 92 -83 27 -9 119 20 154 49
36 30 76 96 90 148 14 49 -1 154 -29 210 -72 140 -225 237 -373 237 -54 0
-181 -28 -249 -55 -20 -8 -42 -15 -47 -15 -11 0 -50 73 -50 94 0 21 -47 74
-81 91 -15 8 -64 26 -108 40 -44 14 -83 30 -86 34 -5 10 144 179 236 267 71
68 86 72 143 35 97 -61 273 -67 422 -14 159 57 319 167 312 214 -3 25 -23 34
-129 63 -33 9 -60 23 -63 32 -4 9 3 36 14 59 26 53 25 73 -2 79 -172 37 -183
38 -311 33 -144 -5 -228 -26 -272 -67 -30 -28 -50 -87 -65 -187 -7 -43 -14
-87 -16 -98 -2 -11 -43 -69 -91 -128 -111 -137 -192 -248 -193 -264 0 -23
-100 -8 -100 14 0 5 41 62 91 128 163 215 217 334 227 494 5 88 7 97 41 144
20 27 48 63 62 80 l25 30 93 -18 c107 -21 179 -14 317 29 123 39 264 145 264
199 0 17 -46 48 -102 68 -21 7 -38 16 -38 20 0 5 9 23 20 42 14 23 24 73 35
163 25 216 22 234 -46 234 -26 0 -53 -11 -88 -35 l-52 -34 -36 24 c-53 37 -79
32 -130 -20 -23 -25 -45 -45 -47 -45 -2 0 -23 16 -46 35 -23 19 -52 35 -65 35
-32 0 -64 -42 -104 -133 -38 -88 -55 -95 -98 -46 -29 32 -72 59 -96 59 -21 0
-49 -95 -54 -186 -4 -67 -1 -94 17 -148 28 -84 95 -177 155 -211 51 -30 52
-23 -16 -103 -26 -30 -42 -62 -54 -110 -36 -143 -89 -137 -89 11 -1 31 -3 57
-7 57 -3 0 -20 -5 -38 -11 -28 -10 -31 -15 -27 -38 15 -69 26 -173 26 -246 0
-68 -4 -89 -29 -140 -16 -33 -49 -86 -75 -119 -25 -32 -62 -85 -82 -117 -19
-33 -39 -59 -44 -59 -5 0 -26 21 -47 47 -64 80 -115 127 -176 158 -31 17 -57
32 -57 35 0 3 36 22 79 42 143 64 161 114 186 498 41 642 66 1022 80 1200 32
407 22 531 -47 596 -43 41 -64 51 -140 68 -114 26 -1190 127 -1593 150 -83 4
-105 1 -290 -45z m515 -44 c413 -29 525 -39 960 -80 164 -16 235 -29 210 -37
-8 -3 -71 -18 -140 -33 -69 -15 -160 -40 -202 -56 -89 -34 -125 -35 -468 -19
-216 10 -662 52 -755 70 -61 12 -307 40 -367 41 -35 1 -24 5 62 25 58 13 170
41 250 63 169 45 181 46 450 26z m-644 -155 c87 -11 162 -20 167 -20 4 0 8
-48 8 -107 1 -60 5 -137 9 -173 6 -58 7 -52 8 56 1 67 5 143 8 169 l7 47 101
-6 c145 -10 455 -46 484 -57 25 -10 25 -11 18 -95 -3 -47 -3 -194 1 -327 l7
-242 18 230 c21 275 36 391 52 404 12 10 246 -6 414 -29 128 -17 173 -59 192
-174 11 -71 -3 -429 -35 -886 -8 -113 -26 -380 -40 -595 -28 -444 -31 -478
-52 -522 -34 -73 -136 -97 -316 -74 -148 19 -184 29 -191 54 -3 12 -6 94 -7
182 -1 130 -3 153 -12 120 -5 -22 -12 -102 -14 -179 l-4 -138 -36 5 c-20 4
-111 11 -202 17 -282 18 -383 28 -392 37 -13 13 -39 228 -41 338 l-1 90 -8
-85 c-4 -47 -8 -130 -8 -185 -2 -144 -2 -145 -65 -145 l-52 0 7 53 c10 69 20
177 13 152 -2 -11 -14 -60 -26 -108 l-21 -89 -56 6 c-31 3 -90 8 -131 11 -176
14 -255 46 -291 118 -24 46 -24 41 6 452 17 244 42 643 55 905 22 422 30 567
36 615 16 128 78 194 185 195 25 0 117 -9 205 -20z m1877 -5 c20 -14 37 -29
37 -33 0 -4 -30 -16 -67 -26 -87 -23 -133 -45 -133 -63 0 -11 -7 -13 -27 -9
-31 7 -93 -25 -93 -46 0 -9 4 -8 11 2 9 12 10 12 5 -3 -3 -10 -6 -25 -6 -33 0
-9 -5 -12 -12 -8 -7 5 -9 2 -6 -8 4 -8 3 -21 -2 -28 -5 -8 -11 -1 -19 23 -12
34 -76 97 -126 125 -19 10 -19 11 7 21 15 6 69 22 120 35 51 14 129 36 173 50
100 31 93 31 138 1z m-3358 -1885 c-2 -3 0 -12 6 -20 7 -13 9 -12 9 2 0 14 7
17 33 14 17 -2 61 -5 97 -6 41 -2 54 -5 35 -8 l-30 -5 25 -7 25 -8 -25 -2
c-23 -2 -23 -3 5 -9 24 -5 30 -11 30 -33 0 -14 3 -30 8 -34 4 -4 7 -11 7 -15
0 -10 -71 37 -82 54 -5 8 -8 8 -8 -3 0 -8 12 -24 27 -35 14 -11 34 -28 44 -38
11 -12 19 -15 24 -8 3 6 11 11 18 11 6 0 2 -6 -8 -14 -20 -14 -35 -5 -152 86
-48 38 -51 45 -20 51 14 3 11 4 -9 4 -17 -1 -31 -6 -31 -12 1 -51 -17 -62 -26
-16 -3 16 -13 36 -22 44 -14 14 -13 16 4 14 11 0 18 -4 16 -7z m1425 -837
c-12 -15 -12 -16 0 -6 11 10 26 0 81 -51 75 -71 164 -135 225 -161 53 -23 190
-54 213 -48 10 3 22 0 25 -6 5 -7 -3 -11 -21 -11 -16 0 -39 -7 -52 -16 -15
-11 -25 -13 -30 -6 -3 6 -19 14 -34 17 -22 6 -25 10 -16 21 10 12 9 13 -4 8
-9 -3 -42 6 -73 20 -75 35 -82 32 -14 -4 42 -23 48 -29 25 -24 -23 4 -26 3
-15 -5 8 -6 22 -11 31 -11 8 0 24 -6 34 -14 18 -13 18 -14 -10 -10 l-30 4 30
-15 c17 -8 38 -14 47 -15 9 0 19 -4 22 -9 3 -5 26 -12 52 -16 25 -3 44 -9 41
-12 -13 -12 -216 44 -278 77 -15 9 -17 8 -12 -7 12 -32 -46 19 -179 156 -121
123 -148 158 -113 145 17 -7 21 11 5 21 -5 3 -10 11 -10 18 0 6 7 2 15 -10 8
-12 12 -29 8 -39 -4 -12 -3 -15 5 -10 18 11 15 37 -9 76 l-21 35 38 -37 c33
-33 36 -39 24 -55z m360 -40 c47 -12 95 -23 108 -23 13 0 21 -3 19 -7 -7 -11
379 3 424 15 21 5 42 6 49 2 7 -4 -7 -10 -32 -15 -41 -7 -42 -8 -15 -15 18 -6
37 -4 54 5 15 8 31 11 37 7 6 -3 0 -9 -14 -13 l-25 -7 25 -1 c21 -1 22 -3 10
-15 -15 -14 -184 -85 -250 -105 -45 -13 -119 -10 -113 5 5 14 55 13 65 -1 5
-6 12 -5 20 3 6 6 21 12 32 12 12 0 30 7 40 15 11 8 25 15 32 15 7 0 25 5 41
11 20 7 24 12 14 18 -9 6 -5 10 15 15 58 15 -2 26 -136 25 -89 -1 -123 -4
-100 -9 48 -10 157 -48 145 -50 -5 -1 -21 -3 -35 -5 -14 -2 -60 -7 -103 -11
-70 -6 -78 -9 -74 -25 4 -16 0 -18 -42 -15 -25 2 -36 2 -23 -1 12 -2 22 -9 22
-14 0 -6 -4 -7 -10 -4 -5 3 -10 2 -10 -4 0 -5 6 -12 13 -15 29 -13 -73 8 -122
25 -75 26 -108 48 -90 61 11 8 10 8 -4 4 -18 -6 -60 20 -117 72 -14 12 -28 22
-32 22 -5 0 -8 5 -8 11 0 6 12 1 26 -10 14 -11 32 -17 40 -14 14 5 21 54 7 52
-21 -3 -26 2 -13 12 12 9 11 10 -8 6 -13 -3 -20 -1 -16 5 4 6 -2 8 -16 3 -20
-6 -21 -5 -10 7 12 12 19 12 54 -5 23 -11 79 -31 126 -44z m1398 -370 c16 -31
69 -192 112 -343 23 -80 45 -156 50 -170 11 -29 91 -334 113 -430 14 -60 14
-66 -1 -78 -29 -22 -56 -11 -64 28 -4 19 -19 96 -33 170 -39 199 -96 416 -159
604 -57 170 -69 236 -41 236 8 0 18 -8 23 -17z m-2007 -56 c57 -31 89 -77 89
-133 0 -25 -5 -44 -12 -47 -10 -4 -10 -7 0 -18 6 -7 12 -25 12 -40 0 -22 -4
-26 -21 -22 -11 3 -27 16 -36 29 -11 18 -21 22 -39 18 -29 -8 -32 11 -4 26 32
17 23 28 -20 23 -44 -5 -54 10 -23 33 23 16 11 29 -15 15 -35 -19 -59 -12 -91
25 -29 32 -30 37 -17 56 23 32 68 58 102 58 17 0 51 -10 75 -23z m-389 -184
c113 -127 213 -247 400 -478 53 -66 146 -174 207 -239 61 -66 111 -126 111
-133 0 -22 -54 11 -113 69 -29 29 -68 66 -87 83 l-35 30 27 -35 c15 -19 32
-34 38 -32 6 1 9 -2 5 -8 -3 -5 6 -26 21 -46 26 -33 38 -93 22 -109 -3 -3 -40
11 -83 30 -42 20 -79 34 -81 32 -11 -10 25 -58 67 -88 26 -19 45 -37 42 -41
-2 -5 1 -8 6 -8 6 0 11 -5 11 -11 0 -7 -10 -9 -24 -5 -30 7 -141 72 -157 92
-6 8 -16 14 -21 14 -14 0 68 -68 125 -102 28 -18 44 -34 41 -41 -11 -20 -47
-57 -55 -57 -4 0 -41 20 -83 45 -64 37 -76 42 -76 27 0 -17 71 -71 113 -88 24
-9 22 -14 -29 -66 -49 -50 -56 -51 -109 -12 -16 12 -49 31 -72 43 -35 18 -43
19 -43 7 0 -18 93 -90 133 -102 l28 -9 -56 -65 c-31 -36 -73 -86 -93 -112 -40
-53 -52 -57 -90 -29 -49 34 -131 71 -157 71 l-27 0 24 -28 c13 -16 51 -51 85
-78 56 -44 75 -73 44 -66 -7 1 -10 -1 -7 -6 11 -19 -14 -36 -49 -34 -36 4 -44
-5 -23 -26 7 -7 8 -12 3 -12 -6 1 -24 20 -41 43 -80 110 -103 147 -98 161 3 8
1 17 -5 21 -7 4 -8 0 -4 -11 4 -12 3 -15 -5 -10 -7 4 -12 12 -12 18 0 5 -27
38 -59 72 -77 80 -131 147 -131 165 0 11 -4 9 -14 -5 -13 -17 -12 -21 3 -39 9
-11 30 -37 45 -58 24 -33 25 -36 7 -25 -12 7 -21 15 -21 18 0 3 -11 18 -23 34
-18 22 -26 26 -32 16 -5 -8 -4 -11 2 -7 5 3 17 -9 25 -27 9 -18 31 -40 50 -49
18 -9 52 -39 76 -67 45 -52 50 -70 7 -24 -14 15 -25 21 -25 14 0 -9 -7 -7 -22
6 -13 11 -33 19 -45 18 -12 0 -20 3 -17 8 3 4 9 6 14 3 5 -3 12 0 15 5 5 8 13
6 26 -6 10 -9 19 -13 19 -8 0 17 -23 34 -48 34 -13 0 -20 4 -17 10 3 6 4 10 1
10 -2 0 -12 3 -22 7 -12 5 -15 3 -9 -6 6 -10 3 -11 -13 -2 -15 8 -23 7 -36 -8
-9 -9 -16 -22 -16 -27 0 -5 7 0 15 10 14 19 15 18 12 -13 -2 -24 5 -41 23 -61
28 -31 37 -32 22 -3 -8 15 -7 19 7 19 13 0 17 -6 14 -21 -4 -16 -3 -17 6 -5 6
8 11 11 11 5 -1 -5 -7 -18 -14 -28 -13 -17 -26 -5 -157 145 -79 90 -149 168
-157 174 -8 6 -12 16 -8 23 4 6 2 18 -4 26 -7 9 -8 15 -2 15 5 0 12 9 15 20 7
26 -5 26 -21 -1 -10 -16 -11 -24 -1 -35 6 -8 9 -17 6 -20 -5 -6 -44 34 -88 90
-11 13 -18 30 -16 38 2 7 2 10 0 5 -3 -4 -9 -5 -14 -2 -13 8 13 33 28 28 7 -3
13 0 13 7 0 20 98 110 120 110 11 0 20 7 20 15 0 8 -4 15 -8 15 -5 0 -40 27
-80 60 -39 33 -76 60 -81 60 -6 0 -11 5 -11 11 0 9 136 167 279 324 30 33 101
123 157 200 159 216 192 255 219 255 18 0 53 -32 137 -127z m293 -226 c4 5 5
2 1 -5 -9 -15 12 -44 25 -36 5 3 8 1 7 -5 -2 -5 11 -25 28 -43 16 -18 45 -57
64 -85 36 -57 46 -65 37 -31 -5 17 4 50 19 67 2 2 19 -7 38 -19 29 -18 36 -19
36 -6 0 8 -4 18 -10 21 -12 7 -13 25 -2 25 10 0 29 -47 37 -92 4 -20 13 -39
21 -42 16 -6 19 -36 4 -36 -5 0 -14 8 -20 18 -8 12 -13 13 -16 4 -3 -6 -10
-10 -14 -7 -5 3 -12 0 -16 -7 -4 -7 -3 -10 1 -5 10 9 87 -62 80 -74 -3 -4 3
-5 13 -2 14 3 22 -4 31 -26 7 -16 19 -32 27 -35 16 -6 19 -46 4 -46 -5 0 -10
7 -10 15 0 8 -5 15 -10 15 -7 0 -7 -7 0 -21 7 -11 8 -24 4 -27 -4 -4 -9 -1
-11 5 -3 7 -23 32 -46 56 -23 24 -53 58 -67 76 -14 18 -31 39 -38 46 -8 9 -9
16 -2 20 13 8 12 16 -5 39 -8 11 -18 16 -22 13 -3 -4 2 -14 13 -21 10 -8 15
-18 11 -23 -5 -4 -25 11 -45 33 -62 70 -227 280 -201 256 14 -12 29 -19 34
-15z m691 -458 c58 -71 64 -82 37 -72 -12 5 -14 3 -8 -7 6 -10 0 -12 -33 -6
-35 5 -43 3 -52 -14 -10 -19 -12 -18 -43 18 -17 20 -38 41 -44 45 -7 4 -13 14
-13 21 0 7 -10 21 -22 33 -52 46 -78 84 -78 113 0 30 13 40 26 19 3 -6 15 -8
26 -6 15 4 18 1 13 -13 -3 -10 -1 -21 4 -25 7 -3 8 0 5 10 -5 11 -2 14 10 9 9
-3 16 -13 16 -21 0 -8 5 -11 11 -7 7 4 2 15 -16 31 -14 14 -24 31 -21 38 2 7
-6 23 -20 36 -13 12 -24 27 -24 33 1 13 149 -141 226 -235z m1980 -200 c75
-14 104 -39 104 -90 0 -21 -5 -48 -11 -61 -17 -36 -97 -95 -167 -123 -57 -23
-65 -24 -78 -10 -14 14 -12 19 19 54 35 39 54 77 43 88 -9 9 -83 -27 -112 -54
-25 -23 -27 -23 -40 -6 -12 16 -9 22 27 56 22 22 38 41 36 44 -3 2 -28 -8 -57
-22 -84 -42 -108 -16 -42 47 44 43 89 66 145 78 59 11 67 11 133 -1z m-107
-395 c-9 -8 -41 -18 -72 -21 -35 -4 -58 -11 -61 -20 -4 -10 -1 -13 13 -8 11 3
22 1 26 -5 10 -16 35 -12 35 6 0 11 6 15 20 11 11 -3 20 -1 20 4 0 5 7 9 15 9
10 0 12 -6 8 -17 -7 -17 -6 -17 11 0 21 21 37 22 30 2 -4 -10 -1 -14 7 -11 8
2 30 7 49 10 27 5 31 3 20 -5 -12 -8 -8 -9 15 -5 24 5 20 1 -15 -15 -25 -11
-56 -27 -70 -34 -44 -23 -162 -65 -170 -60 -13 8 -42 127 -33 136 4 4 39 13
78 19 38 6 71 13 74 16 2 2 7 4 10 4 3 0 -2 -7 -10 -16z m430 -121 c1 9 5 17
10 17 14 0 11 -153 -4 -170 -7 -8 -15 -24 -18 -35 -3 -13 -5 -9 -6 13 0 17 4
32 9 32 6 0 10 12 9 28 l-1 27 -9 -27 c-8 -22 -17 -27 -55 -30 -25 -2 -44 1
-45 7 0 5 -3 4 -6 -2 -2 -7 -18 -13 -34 -13 -22 0 -29 -5 -29 -20 0 -17 -7
-20 -40 -20 -44 0 -48 -9 -34 -79 l7 -31 83 0 c46 0 84 -4 84 -9 0 -4 -5 -22
-11 -40 -10 -28 -15 -31 -50 -31 l-39 0 0 -43 0 -42 46 3 c42 4 45 6 40 28 -5
18 -3 22 8 18 8 -3 19 3 26 16 6 12 17 20 23 17 8 -3 11 9 8 39 -2 29 1 44 9
44 8 0 10 12 5 38 -5 31 -3 39 9 39 22 0 22 -100 0 -164 -17 -51 -82 -145
-123 -178 -30 -24 -111 -65 -129 -65 -7 0 -21 19 -31 43 -10 23 -39 74 -65
112 -25 38 -47 72 -47 77 -3 18 -6 24 -22 54 -23 44 -68 166 -63 171 2 3 7 -5
11 -16 6 -21 25 -29 25 -12 0 9 313 166 380 191 19 7 39 17 45 22 6 5 12 1 17
-9 6 -17 7 -17 7 0z m-3683 -136 c85 -90 110 -127 101 -151 -8 -20 -103 -74
-144 -82 -53 -10 -81 2 -103 46 -35 69 -20 195 32 257 19 24 35 14 114 -70z
m1094 -797 c0 -5 8 -10 18 -10 15 0 15 2 2 11 -11 8 -8 9 15 4 17 -3 59 -12
93 -18 36 -7 60 -16 55 -21 -4 -5 2 -5 15 -2 16 6 22 3 22 -8 0 -9 5 -16 11
-16 5 0 7 5 3 12 -5 8 5 9 37 5 24 -4 79 -10 121 -13 48 -4 75 -11 71 -17 -4
-6 5 -8 23 -4 20 4 13 -2 -21 -18 -27 -13 -50 -30 -50 -36 0 -6 20 -20 45 -30
l45 -18 -50 5 c-35 3 -44 2 -30 -5 19 -8 19 -9 -5 -13 -14 -3 -1 -3 29 -1 41
4 52 2 49 -9 -4 -9 -23 -12 -74 -10 -112 5 -428 43 -439 53 -8 8 37 6 116 -6
21 -3 28 1 32 17 5 16 11 19 34 15 33 -6 63 8 63 28 0 8 3 14 8 13 4 -2 8 2
10 7 1 6 -1 10 -5 11 -5 0 -15 3 -23 7 -32 12 -110 14 -117 3 -11 -17 -12 -37
-2 -30 5 3 9 12 9 20 0 8 5 14 10 14 16 0 12 -26 -6 -41 -14 -12 -14 -14 3
-20 13 -6 10 -8 -13 -8 -20 -1 -34 5 -38 14 -3 8 -18 15 -33 16 -23 0 -25 2
-9 8 14 5 16 10 8 15 -7 4 -19 23 -27 42 -15 36 -40 44 -65 22 -12 -11 -12
-10 -1 5 14 18 61 24 61 7z m993 -410 c10 -36 26 -109 37 -162 10 -54 24 -107
30 -119 10 -18 7 -26 -17 -57 -17 -21 -35 -47 -42 -59 -11 -23 -15 -23 -185
-23 -195 0 -186 4 -186 -81 0 -42 -5 -49 -29 -42 -16 4 -19 22 -26 146 -10
173 -14 367 -7 425 l4 42 201 -2 202 -3 18 -65z"/>
<path d="M4450 11545 c-69 -8 -155 -11 -215 -8 -114 6 -122 -6 -13 -19 98 -11
88 -11 218 5 87 11 201 14 465 12 312 -3 326 -2 130 4 -121 5 -276 11 -345 14
-79 3 -167 0 -240 -8z"/>
<path d="M3806 11399 c-27 -21 -82 -117 -72 -126 2 -3 18 5 34 17 65 48 82 9
89 -209 4 -106 9 -157 15 -147 14 25 24 179 18 291 -7 146 -9 142 61 150 32 4
61 11 64 15 7 11 -76 30 -133 30 -35 0 -57 -6 -76 -21z"/>
<path d="M5058 11254 c-50 -9 -29 -19 31 -16 71 4 159 -19 197 -52 25 -21 26
-26 16 -55 -6 -17 -28 -52 -48 -76 -44 -54 -34 -59 18 -9 50 46 99 67 133 54
26 -10 32 -38 19 -88 -6 -22 -7 -22 -45 13 -22 19 -47 35 -57 35 -12 0 -3 -13
30 -43 25 -23 48 -51 51 -63 6 -30 -20 -711 -38 -984 -12 -182 -32 -500 -35
-563 0 -4 -17 -26 -39 -50 -23 -26 -41 -57 -45 -79 -8 -45 -2 -47 37 -10 l29
27 -7 -25 c-15 -57 -85 -120 -131 -120 -39 0 -82 49 -98 110 l-14 55 -1 -81
-1 -81 41 -19 c57 -25 140 -24 176 2 36 27 70 77 83 123 5 20 10 99 10 176 0
172 21 553 54 985 33 419 37 682 14 726 -23 42 -71 81 -116 94 -41 12 -222 21
-264 14z"/>
<path d="M3995 10741 c-47 -21 -85 -68 -123 -149 -24 -51 -26 -68 -26 -172 0
-234 76 -380 195 -380 119 0 204 167 204 400 0 124 -16 195 -57 251 -48 67
-117 85 -193 50z m93 -77 c30 -21 29 -75 -3 -129 -28 -49 -45 -58 -79 -45 -52
19 -70 83 -41 140 26 50 79 65 123 34z"/>
<path d="M4940 10729 c-66 -26 -147 -144 -184 -268 -19 -66 -21 -198 -2 -266
34 -128 133 -265 191 -265 46 0 94 28 159 92 57 56 67 72 88 138 30 96 32 292
5 381 -45 148 -155 228 -257 188z m130 -105 c40 -39 -9 -196 -65 -210 -66 -16
-105 28 -105 118 0 58 18 90 60 107 31 13 90 5 110 -15z"/>
<path d="M4469 10252 c-14 -15 -36 -45 -49 -67 -13 -22 -41 -62 -62 -89 -21
-27 -37 -54 -35 -60 7 -20 47 -18 83 5 l37 22 16 -22 c13 -16 25 -22 47 -19
28 3 29 4 27 53 -4 72 -24 205 -32 205 -3 0 -18 -13 -32 -28z"/>
<path d="M4236 9853 c-49 -71 -27 -156 65 -258 92 -100 195 -123 295 -65 84
48 164 159 164 226 0 29 -24 74 -39 74 -5 0 -46 -26 -92 -57 -76 -52 -89 -57
-135 -56 -72 0 -135 33 -179 93 -19 26 -35 52 -35 58 0 27 -21 19 -44 -15z"/>
<path d="M3861 9627 c-1 -204 -9 -242 -55 -272 -48 -32 -110 11 -156 107 -30
63 -40 65 -40 6 0 -52 21 -99 59 -131 62 -51 108 -48 171 12 l40 38 -1 164 c0
90 -4 187 -9 214 -5 35 -8 -8 -9 -138z"/>
<path d="M3070 7862 c0 -46 594 -632 640 -632 4 0 -120 125 -274 278 -329 325
-366 361 -366 354z"/>
<path d="M2710 7569 c-12 -29 -11 -32 31 -75 409 -418 619 -618 619 -590 0 2
-117 123 -259 268 -252 255 -315 328 -346 396 -19 40 -29 40 -45 1z"/>
<path d="M6879 10829 c-16 -23 -24 -27 -30 -18 -15 25 -20 1 -6 -32 21 -50 35
-59 85 -49 56 10 74 29 76 77 1 38 1 38 -39 38 -22 0 -45 4 -52 8 -7 4 -20 -5
-34 -24z"/>
<path d="M5710 4553 c1 -10 7 -47 15 -83 23 -103 24 -101 -37 -84 -84 22 -127
17 -99 -11 27 -27 41 -134 41 -301 0 -172 -13 -273 -43 -347 l-14 -32 139 -1
c126 -2 139 0 132 15 -33 80 -37 112 -38 281 0 151 3 186 22 259 13 46 21 90
18 98 -3 7 -19 13 -35 13 -40 0 -46 14 -16 34 29 19 36 20 30 3 -3 -6 4 -18
15 -25 18 -11 26 -10 56 8 40 26 62 58 42 65 -7 2 -29 6 -48 7 l-35 3 33 33
c17 19 32 36 32 39 0 6 -93 -3 -125 -12 -15 -5 -25 2 -38 24 -20 34 -47 41
-47 14z"/>
<path d="M5195 4478 c-9 -36 11 -77 47 -96 62 -33 78 -56 78 -113 0 -41 -8
-66 -36 -118 -27 -49 -43 -96 -60 -182 -14 -73 -34 -139 -53 -177 -17 -34 -31
-66 -31 -72 0 -6 33 -9 90 -7 129 5 143 23 155 197 8 111 -2 145 -41 146 -16
0 -35 1 -41 2 -22 3 -14 46 18 109 18 35 32 79 34 108 2 28 7 73 11 101 6 47
4 54 -23 84 -25 28 -38 34 -86 38 -53 4 -56 3 -62 -20z"/>
<path d="M2710 4430 c-15 -10 -8 -14 23 -11 15 2 17 -9 17 -111 0 -62 -5 -198
-11 -303 -11 -201 -15 -217 -68 -262 l-26 -22 158 -1 c153 0 157 1 147 19 -11
21 -14 171 -4 209 4 12 10 22 15 22 4 0 35 -40 68 -88 34 -49 77 -105 98 -125
l36 -37 89 0 c48 0 88 2 88 5 0 3 -15 26 -34 52 -19 27 -57 87 -84 135 l-50
86 48 30 c99 62 134 184 78 269 -35 54 -82 89 -154 116 -51 18 -83 22 -239 24
-110 2 -186 0 -195 -7z m361 -136 c17 -8 37 -30 45 -49 37 -90 -1 -150 -109
-170 -29 -6 -37 -3 -46 13 -14 27 -14 121 0 178 11 41 13 44 46 44 19 0 48 -7
64 -16z"/>
<path d="M6175 4425 c-16 -8 -40 -14 -52 -15 -13 0 -23 -3 -23 -6 0 -4 12 -39
28 -78 26 -69 27 -77 27 -261 -1 -202 -13 -287 -46 -328 -10 -14 -19 -28 -19
-31 0 -3 61 -6 135 -6 l136 0 -7 38 c-4 20 -11 45 -15 54 -10 18 -10 122 0
238 l6 74 52 -64 c28 -36 81 -96 118 -135 37 -38 98 -108 136 -155 37 -47 78
-91 89 -98 l22 -13 -3 143 c-2 79 0 249 5 378 l9 235 -87 -3 c-85 -3 -88 -4
-82 -25 4 -12 9 -83 13 -157 l6 -135 -24 20 c-13 11 -55 50 -94 86 -38 37
-106 98 -150 136 -44 39 -91 82 -104 97 -27 29 -34 30 -76 11z"/>
<path d="M4097 4383 l-27 -28 -183 -2 c-100 -1 -207 -2 -237 -3 l-55 0 0 -318
0 -318 180 -1 c120 0 202 -6 247 -15 81 -18 85 -16 123 82 14 35 33 73 43 84
22 24 62 90 62 101 0 4 -30 -20 -66 -53 -78 -72 -111 -82 -279 -82 -128 0
-145 8 -145 66 l0 34 78 0 c42 0 106 -5 142 -10 35 -5 65 -8 67 -7 1 2 5 47 9
102 7 94 6 98 -12 90 -10 -5 -76 -10 -145 -13 l-126 -4 -7 32 c-3 18 -6 46 -6
62 l0 29 150 -2 c82 -2 152 0 155 2 3 3 10 32 16 65 7 37 22 73 41 97 34 44
16 51 -25 10z"/>
<path d="M4432 4328 c22 -41 23 -53 22 -258 -1 -227 -11 -303 -45 -351 l-20
-29 118 0 c65 0 135 -3 156 -6 l37 -7 -27 59 c-23 48 -28 77 -31 151 l-4 91
114 -5 c130 -7 171 2 224 49 61 53 68 148 18 236 -49 84 -150 112 -407 112
l-177 0 22 -42z m358 -120 c42 -21 45 -26 48 -65 3 -35 -1 -47 -23 -67 -27
-25 -93 -46 -144 -46 l-31 0 0 88 c0 55 4 92 12 100 19 19 90 14 138 -10z"/>
<path d="M4860 3683 c-18 -23 -21 -37 -17 -78 4 -43 10 -54 46 -87 23 -20 56
-40 74 -44 17 -3 53 -21 79 -39 51 -36 110 -51 158 -40 39 9 83 60 74 89 -10
33 -54 106 -64 106 -5 0 -17 -14 -25 -31 -41 -78 -128 -43 -159 65 -19 65 -44
86 -102 86 -34 0 -47 -5 -64 -27z"/>
</g>
</svg>
